<?xml version="1.0" standalone="no"?>
<!DOCTYPE svg PUBLIC "-//W3C//DTD SVG 20010904//EN"
 "http://www.w3.org/TR/2001/REC-SVG-20010904/DTD/svg10.dtd">
<svg version="1.0" xmlns="http://www.w3.org/2000/svg"
 width="500.000000pt" height="500.000000pt" viewBox="0 0 500.000000 500.000000"
 preserveAspectRatio="xMidYMid meet">
<metadata>
Created by potrace 1.11, written by Peter Selinger 2001-2013
</metadata>
<g transform="translate(0.000000,500.000000) scale(0.100000,-0.100000)"
fill="#000000" stroke="none">
<path d="M1264 3919 c-67 -19 -127 -71 -161 -137 l-33 -64 0 -1194 0 -1194
-74 0 c-102 0 -106 -5 -106 -135 0 -81 3 -107 16 -119 14 -14 115 -16 969 -16
854 0 955 2 969 16 13 12 16 38 16 118 0 129 -5 136 -108 136 l-72 0 0 451 0
451 53 -7 c70 -10 106 -26 146 -66 54 -54 63 -87 71 -264 6 -152 8 -163 38
-225 41 -85 83 -135 154 -180 166 -108 377 -88 521 49 121 114 137 181 137
586 l0 301 56 27 c70 35 162 121 197 185 46 85 57 150 57 338 0 171 0 173 -26
203 -24 29 -31 31 -90 31 l-64 0 0 151 0 151 -29 29 c-37 36 -79 38 -118 5
l-28 -24 -3 -156 -3 -156 -90 0 -89 0 0 155 c0 156 0 156 -26 180 -29 27 -72
32 -106 14 -37 -20 -48 -69 -48 -214 l0 -135 -60 0 c-51 0 -65 -4 -85 -25 -25
-24 -25 -25 -25 -218 0 -168 3 -202 20 -253 40 -117 129 -215 240 -265 l51
-23 -3 -317 c-3 -304 -4 -319 -24 -346 -52 -70 -132 -92 -204 -55 -65 33 -76
62 -83 229 -4 92 -12 169 -22 203 -61 203 -250 350 -451 350 l-63 0 -3 623
c-3 620 -3 622 -25 663 -28 53 -74 99 -127 127 -41 22 -43 22 -636 24 -341 1
-608 -2 -626 -8z m1146 -1424 l0 -1165 -535 0 -535 0 0 1165 0 1165 535 0 535
0 0 -1165z m1430 382 c0 -47 -6 -75 -23 -108 -55 -104 -205 -124 -283 -37 -35
38 -45 65 -51 139 l-6 69 182 0 181 0 0 -63z"/>
<path d="M1641 3201 c-14 -9 -121 -441 -121 -488 0 -34 34 -43 166 -43 l116 0
-6 -27 c-3 -16 -15 -88 -26 -161 -24 -147 -21 -162 31 -162 27 0 44 22 220
287 106 158 194 295 196 304 10 36 -34 49 -158 49 l-116 0 25 110 c21 90 23
112 12 125 -10 12 -40 15 -169 15 -86 0 -162 -4 -170 -9z"/>
</g>
</svg>
